<?xml version="1.0" encoding="UTF-8" standalone="no"?>
<!-- Created with Inkscape (http://www.inkscape.org/) -->

<svg
   inkscape:version="1.4.2 (f4327f4, 2025-05-13)"
   sodipodi:docname="logo-stacked.svg"
   version="1.1"
   width="7400"
   height="2800"
   xml:space="preserve"
   id="svg4"
   xmlns:inkscape="http://www.inkscape.org/namespaces/inkscape"
   xmlns:sodipodi="http://sodipodi.sourceforge.net/DTD/sodipodi-0.dtd"
   xmlns:xlink="http://www.w3.org/1999/xlink"
   xmlns="http://www.w3.org/2000/svg"
   xmlns:svg="http://www.w3.org/2000/svg"><sodipodi:namedview
     id="namedview1"
     pagecolor="#ffffff"
     bordercolor="#000000"
     borderopacity="0.25"
     inkscape:showpageshadow="2"
     inkscape:pageopacity="0.0"
     inkscape:pagecheckerboard="0"
     inkscape:deskcolor="#d1d1d1" /><defs
     id="defs1" /><g
     style="stroke:#ffffff;stroke-width:20;stroke-dasharray:none;stroke-opacity:1;paint-order:markers stroke fill"
     transform="translate(-189.996,-214.37653)"
     id="g4"><g
       id="g1"
       transform="translate(61.90283,52.188265)"><g
         style="fill:#041e42;fill-opacity:1;stroke:#ffffff;stroke-width:20;stroke-dasharray:none;stroke-opacity:1;paint-order:markers stroke fill"
         transform="translate(-177.309)"
         id="g2"><path
           id="a"
           style="display:inline;fill:#041e42;fill-opacity:1;fill-rule:nonzero;stroke:#ffffff;stroke-width:20;stroke-linecap:butt;stroke-linejoin:miter;stroke-dasharray:none;stroke-opacity:1;paint-order:markers stroke fill;filter:url(#filter17)"
           d="m 2877.312,1030.5569 a 400,400 0 0 0 800,0 400,400 0 0 0 -800,0 m 600,0 a 200,200 0 0 1 -400,0 200,200 0 0 1 400,0 v 400 h 200 v -400"
           inkscape:label="a" /><path
           id="f"
           d="m 3977.312,1430.5569 h -200 V 830.55687 h -100 l 100,-200 a 400,400 0 0 1 400.0001,-400 h 250 l -100,200 h -150 a 200,200 0 0 0 -200,200 h 400 l -100,200 h -300 z"
           style="display:inline;fill:#041e42;fill-opacity:1;fill-rule:nonzero;stroke:#ffffff;stroke-width:20;stroke-linecap:butt;stroke-linejoin:miter;stroke-dasharray:none;stroke-opacity:1;paint-order:markers stroke fill;filter:url(#filter16)"
           inkscape:label="f" /><path
           id="t"
           d="m 4877.312,1430.5569 a 400,400 0 0 1 -400,-400 V 830.55687 h -100 l 100,-200 v -400 l 200,100 v 300 h 400 l -100,200 h -300 v 200.00003 a 200,200 0 0 0 200,200 h 250 l -100,200 h -50 z"
           style="display:inline;fill:#041e42;fill-opacity:1;fill-rule:nonzero;stroke:#ffffff;stroke-width:20;stroke-linecap:butt;stroke-linejoin:miter;stroke-dasharray:none;stroke-opacity:1;paint-order:markers stroke fill;filter:url(#filter15)"
           inkscape:label="t" /><path
           id="path12"
           style="display:inline;fill:#041e42;fill-opacity:1;fill-rule:nonzero;stroke:#ffffff;stroke-width:20;stroke-linecap:butt;stroke-linejoin:miter;stroke-dasharray:none;stroke-opacity:1;paint-order:markers stroke fill;filter:url(#filter11)"
           d="m 3702.314,1430.5569 v -50 h 50 v 50 z"
           inkscape:label="period" /><use
           x="0"
           y="0"
           xlink:href="#path12"
           id="use14"
           transform="translate(299.99805)"
           style="fill:#041e42;fill-opacity:1;stroke:#ffffff;stroke-width:20;stroke-dasharray:none;stroke-opacity:1;paint-order:markers stroke fill" /><use
           x="0"
           y="0"
           xlink:href="#path12"
           id="use15"
           transform="translate(1374.998)"
           style="fill:#041e42;fill-opacity:1;stroke:#ffffff;stroke-width:20;stroke-dasharray:none;stroke-opacity:1;paint-order:markers stroke fill" /></g><g
         style="fill:#041e42;fill-opacity:1;stroke:#ffffff;stroke-width:20;stroke-dasharray:none;stroke-opacity:1;paint-order:markers stroke fill"
         id="g3"><path
           id="c"
           d="m 6600.008,1700 -100,200 h -300 a 200,200 0 0 0 0,400 h 400 l -100,200 h -300 a 400,400 0 0 1 0,-800 z"
           style="display:inline;fill:#041e42;fill-opacity:1;fill-rule:nonzero;stroke:#ffffff;stroke-width:20;stroke-linecap:butt;stroke-linejoin:miter;stroke-dasharray:none;stroke-opacity:1;paint-order:markers stroke fill;filter:url(#filter14)"
           inkscape:label="c" /><path
           id="path7-2"
           style="display:inline;fill:#041e42;fill-opacity:1;fill-rule:nonzero;stroke:#ffffff;stroke-width:20;stroke-linecap:butt;stroke-linejoin:miter;stroke-dasharray:none;stroke-opacity:1;paint-order:markers stroke fill;filter:url(#filter12)"
           d="m 999.996,2100 a 400,400 0 0 0 -800,0 400,400 0 0 0 800,0 m -200,0 a 200,200 0 0 1 -400,0 200,200 0 0 1 400,0 m 200,0 v -700 l -200,-100 v 800"
           inkscape:label="d" /><path
           id="path15-8"
           style="display:inline;fill:#041e42;fill-opacity:1;fill-rule:nonzero;stroke:#ffffff;stroke-width:20;stroke-linecap:butt;stroke-linejoin:miter;stroke-dasharray:none;stroke-opacity:1;paint-order:markers stroke fill;filter:url(#filter11)"
           d="m 5050.006,1700 v 400 a 400,400 0 0 0 400,400 h 200 l 100,-200 h -300 a 200,200 0 0 1 -200,-200 v -300 z m 0,-100 v -100 h 200 v 200 z"
           inkscape:label="i" /><path
           id="path22-6"
           style="display:inline;fill:#041e42;fill-opacity:1;fill-rule:nonzero;stroke:#ffffff;stroke-width:20;stroke-linecap:butt;stroke-linejoin:miter;stroke-dasharray:none;stroke-opacity:1;paint-order:markers stroke fill;filter:url(#filter10)"
           d="m 3600.004,2100 a 400,400 0 0 1 800,0 m -200,0 a 400,400 0 0 1 800,0 v 400 h -200 v -400 a 200,200 0 0 0 -400,0 v 100 z m 0,0 a 200,200 0 0 0 -400,0 v 400 h -200 v -800 l 200,100 v 300"
           inkscape:label="m" /><path
           id="path24-5"
           style="display:inline;fill:#041e42;fill-opacity:1;fill-rule:nonzero;stroke:#ffffff;stroke-width:20;stroke-linecap:butt;stroke-linejoin:miter;stroke-dasharray:none;stroke-opacity:1;paint-order:markers stroke fill;filter:url(#filter9)"
           d="m 1900,2100 a 400,400 0 0 1 800,0 v 400 h -200 v -400 a 200,200 0 0 0 -400,0 v 400 h -200 v -800 l 200,100 v 300"
           inkscape:label="n" /><path
           id="path34-0"
           d="m 7450.01,1700 -100,200 h -475 a 50,50 0 0 0 0,100 h 325 a 250,250 0 0 1 0,500 h -550 l 100,-200 h 450 a 50,50 0 0 0 0,-100 h -300 a 250,250 0 0 1 0,-500 z"
           style="display:inline;fill:#041e42;fill-opacity:1;fill-rule:nonzero;stroke:#ffffff;stroke-width:20;stroke-linecap:butt;stroke-linejoin:miter;stroke-dasharray:none;stroke-opacity:1;paint-order:markers stroke fill;filter:url(#filter8)"
           inkscape:label="s" /><path
           id="y"
           style="display:inline;fill:#041e42;fill-opacity:1;fill-rule:nonzero;stroke:#ffffff;stroke-width:20;stroke-linecap:butt;stroke-linejoin:miter;stroke-dasharray:none;stroke-opacity:1;paint-order:markers stroke fill;filter:url(#filter7)"
           d="m 1849.998,2100 a 400,400 0 0 1 -800,0 v -400 l 200,100 v 300 a 200,200 0 0 0 400,0 v -400 l 200,100 v 700 a 400,400 0 0 1 -400,400 h -200 l 100,-200 h 100 a 200,200 0 0 0 200,-200 v -400"
           inkscape:label="y" /><path
           id="path37"
           style="display:inline;fill:#041e42;fill-opacity:1;fill-rule:nonzero;stroke:#ffffff;stroke-width:20;stroke-linecap:butt;stroke-linejoin:miter;stroke-dasharray:none;stroke-opacity:1;paint-order:markers stroke fill;filter:url(#filter17)"
           d="m 2750.002,2100 a 400,400 0 0 0 800,0 400,400 0 0 0 -800,0 m 600,0 a 200,200 0 0 1 -400,0 200,200 0 0 1 400,0 v 400 h 200 v -400"
           inkscape:label="a" /></g></g></g></svg>
