<?xml version="1.0" encoding="UTF-8" standalone="no"?>
<!-- Created with Inkscape (http://www.inkscape.org/) -->

<svg
   width="1920"
   height="1200"
   viewBox="0 0 7191.0112 4494.382"
   version="1.1"
   id="svg1"
   xml:space="preserve"
   inkscape:version="1.4.2 (f4327f4, 2025-05-13)"
   sodipodi:docname="logo-stacked.svg"
   inkscape:export-filename="desktop-stacked.png"
   inkscape:export-xdpi="96"
   inkscape:export-ydpi="96"
   xmlns:inkscape="http://www.inkscape.org/namespaces/inkscape"
   xmlns:sodipodi="http://sodipodi.sourceforge.net/DTD/sodipodi-0.dtd"
   xmlns:xlink="http://www.w3.org/1999/xlink"
   xmlns="http://www.w3.org/2000/svg"
   xmlns:svg="http://www.w3.org/2000/svg"><sodipodi:namedview
     id="namedview1"
     pagecolor="#ffffff"
     bordercolor="#000000"
     borderopacity="0.25"
     inkscape:showpageshadow="2"
     inkscape:pageopacity="0.0"
     inkscape:pagecheckerboard="0"
     inkscape:deskcolor="#d1d1d1"
     inkscape:document-units="px"
     inkscape:zoom="0.4"
     inkscape:cx="1.5e+03"
     inkscape:cy="5.8e+02"
     inkscape:window-width="2560"
     inkscape:window-height="1369"
     inkscape:window-x="2552"
     inkscape:window-y="-8"
     inkscape:window-maximized="1"
     inkscape:current-layer="svg1"
     inkscape:export-bgcolor="#ffffff00" /><defs
     id="defs1"><linearGradient
       id="linearGradient187"
       inkscape:collect="always"><stop
         style="stop-color:#041e42;stop-opacity:1;"
         offset="0"
         id="stop188" /><stop
         style="stop-color:#869397;stop-opacity:1;"
         offset="0.5"
         id="stop213" /><stop
         style="stop-color:#db0007;stop-opacity:1;"
         offset="1"
         id="stop187" /></linearGradient><radialGradient
       inkscape:collect="always"
       xlink:href="#linearGradient187"
       id="radialGradient1"
       cx="1500"
       cy="410"
       fx="1500"
       fy="410"
       r="1100"
       gradientTransform="matrix(0.68,0.68,0.68,-0.68,-530,31)"
       gradientUnits="userSpaceOnUse" /></defs><g
     id="g1"
     transform="translate(25.490923,894.76622)"><g
       id="g16"
       inkscape:label="dynamics"
       style="display:inline;fill:#041e42;fill-opacity:1;stroke:#ffffff;stroke-width:20;stroke-dasharray:none;stroke-opacity:1;paint-order:markers stroke fill"
       transform="matrix(0.98128622,0,0,0.98128622,-186.4404,325.39441)"><path
         id="c"
         d="m 6600.008,1922.7737 -100,200 h -300 a 200,200 0 0 0 0,400 h 400 l -100,200 h -300 a 400,400 0 0 1 0,-800 z"
         style="display:inline;fill:#041e42;fill-opacity:1;fill-rule:nonzero;stroke:#ffffff;stroke-width:20;stroke-linecap:butt;stroke-linejoin:miter;stroke-dasharray:none;stroke-opacity:1;paint-order:markers stroke fill;filter:url(#filter14)"
         inkscape:label="c" /><path
         id="path7-2"
         style="display:inline;fill:#041e42;fill-opacity:1;fill-rule:nonzero;stroke:#ffffff;stroke-width:20;stroke-linecap:butt;stroke-linejoin:miter;stroke-dasharray:none;stroke-opacity:1;paint-order:markers stroke fill;filter:url(#filter12)"
         d="m 999.996,2322.7737 a 400,400 0 0 0 -800,0 400,400 0 0 0 800,0 m -200,0 a 200,200 0 0 1 -400,0 200,200 0 0 1 400,0 m 200,0 v -700 l -200,-100 v 800"
         inkscape:label="d" /><path
         id="path15-8"
         style="display:inline;fill:#041e42;fill-opacity:1;fill-rule:nonzero;stroke:#ffffff;stroke-width:20;stroke-linecap:butt;stroke-linejoin:miter;stroke-dasharray:none;stroke-opacity:1;paint-order:markers stroke fill;filter:url(#filter11)"
         d="m 5050.006,1922.7737 v 400 a 400,400 0 0 0 400,400 h 200 l 100,-200 h -300 a 200,200 0 0 1 -200,-200 v -300 z m 0,-100 v -100 h 200 v 200 z"
         inkscape:label="i" /><path
         id="path22-6"
         style="display:inline;fill:#041e42;fill-opacity:1;fill-rule:nonzero;stroke:#ffffff;stroke-width:20;stroke-linecap:butt;stroke-linejoin:miter;stroke-dasharray:none;stroke-opacity:1;paint-order:markers stroke fill;filter:url(#filter10)"
         d="m 3600.004,2322.7737 a 400,400 0 0 1 800,0 m -200,0 a 400,400 0 0 1 800,0 v 400 h -200 v -400 a 200,200 0 0 0 -400,0 v 400 h -200 z m 0,0 a 200,200 0 0 0 -400,0 v 400 h -200 v -800 l 200,100 v 300"
         inkscape:label="m" /><path
         id="path24-5"
         style="display:inline;fill:#041e42;fill-opacity:1;fill-rule:nonzero;stroke:#ffffff;stroke-width:20;stroke-linecap:butt;stroke-linejoin:miter;stroke-dasharray:none;stroke-opacity:1;paint-order:markers stroke fill;filter:url(#filter9)"
         d="m 1900,2322.7737 a 400,400 0 0 1 800,0 v 400 h -200 v -400 a 200,200 0 0 0 -400,0 v 400 h -200 v -800 l 200,100 v 300"
         inkscape:label="n" /><path
         id="path34-0"
         d="m 7450.01,1922.7737 -100,200 h -475 a 50,50 0 0 0 0,100 h 325 a 250,250 0 0 1 0,500 h -550 l 100,-200 h 450 a 50,50 0 0 0 0,-100 h -300 a 250,250 0 0 1 0,-500 z"
         style="display:inline;fill:#041e42;fill-opacity:1;fill-rule:nonzero;stroke:#ffffff;stroke-width:20;stroke-linecap:butt;stroke-linejoin:miter;stroke-dasharray:none;stroke-opacity:1;paint-order:markers stroke fill;filter:url(#filter8)"
         inkscape:label="s" /><path
         id="y"
         style="display:inline;fill:#041e42;fill-opacity:1;fill-rule:nonzero;stroke:#ffffff;stroke-width:20;stroke-linecap:butt;stroke-linejoin:miter;stroke-dasharray:none;stroke-opacity:1;paint-order:markers stroke fill;filter:url(#filter7)"
         d="m 1849.998,2322.7737 a 400,400 0 0 1 -800,0 v -400 l 200,100 v 300 a 200,200 0 0 0 400,0 v -400 l 200,100 v 700 a 400,400 0 0 1 -400,400 h -200 l 100,-200 h 100 a 200,200 0 0 0 200,-200 v -400"
         inkscape:label="y" /><path
         id="path37"
         style="display:inline;fill:#041e42;fill-opacity:1;fill-rule:nonzero;stroke:#ffffff;stroke-width:20;stroke-linecap:butt;stroke-linejoin:miter;stroke-dasharray:none;stroke-opacity:1;paint-order:markers stroke fill;filter:url(#filter17)"
         d="m 2750.002,2322.7737 a 400,400 0 0 0 800,0 400,400 0 0 0 -800,0 m 600,0 a 200,200 0 0 1 -400,0 200,200 0 0 1 400,0 v 400 h 200 v -400"
         inkscape:label="a" /></g><g
       id="g15"
       transform="matrix(2.0946445,0,0,2.1021775,-4887.1125,-1155.9698)"
       inkscape:label="a.f.t."
       style="display:inline;fill:#041e42;fill-opacity:1;stroke:#ffffff;stroke-width:13.0673;stroke-dasharray:none;stroke-opacity:1;paint-order:markers stroke fill"><path
         id="a"
         style="display:inline;fill:#041e42;fill-opacity:1;fill-rule:nonzero;stroke:#ffffff;stroke-width:13.0673;stroke-linecap:butt;stroke-linejoin:miter;stroke-dasharray:none;stroke-opacity:1;paint-order:markers stroke fill;filter:url(#filter17)"
         d="m 2900,1000 a 400,400 0 0 0 800,0 400,400 0 0 0 -800,0 m 600,0 a 200,200 0 0 1 -400,0 200,200 0 0 1 400,0 v 400 h 200 v -400"
         inkscape:label="a" /><path
         id="f"
         d="M 4000,1400 H 3800 V 830 h -100 l 100,-200 a 400,400 0 0 1 400,-400 h 200 l -100,200 h -100 a 200,200 0 0 0 -200,200 h 400 l -100,200 h -300 z"
         style="display:inline;fill:#041e42;fill-opacity:1;fill-rule:nonzero;stroke:#ffffff;stroke-width:13.0673;stroke-linecap:butt;stroke-linejoin:miter;stroke-dasharray:none;stroke-opacity:1;paint-order:markers stroke fill;filter:url(#filter16)"
         inkscape:label="f" /><path
         id="t"
         d="M 4900,1400 A 400,400 0 0 1 4500,1000 V 830 H 4400 L 4500,630 V 230 l 200,100 v 300 h 400 l -100,200 h -300 v 170 a 200,200 0 0 0 200,200 h 200 l -100,200 v 0 z"
         style="display:inline;fill:#041e42;fill-opacity:1;fill-rule:nonzero;stroke:#ffffff;stroke-width:13.0673;stroke-linecap:butt;stroke-linejoin:miter;stroke-dasharray:none;stroke-opacity:1;paint-order:markers stroke fill;filter:url(#filter15)"
         inkscape:label="t" /><path
         id="path12"
         style="display:inline;fill:#041e42;fill-opacity:1;fill-rule:nonzero;stroke:#ffffff;stroke-width:13.0673;stroke-linecap:butt;stroke-linejoin:miter;stroke-dasharray:none;stroke-opacity:1;paint-order:markers stroke fill;filter:url(#filter11)"
         d="m 3725,1400 v -50 h 50 v 50 z"
         inkscape:label="period" /><use
         x="0"
         y="0"
         xlink:href="#path12"
         id="use14"
         transform="translate(300)"
         style="fill:#041e42;fill-opacity:1;stroke:#ffffff;stroke-width:13.0673;stroke-dasharray:none;stroke-opacity:1;paint-order:markers stroke fill" /><use
         x="0"
         y="0"
         xlink:href="#path12"
         id="use15"
         transform="translate(1400)"
         style="fill:#041e42;fill-opacity:1;stroke:#ffffff;stroke-width:13.0673;stroke-dasharray:none;stroke-opacity:1;paint-order:markers stroke fill" /></g></g></svg>
