<?xml version="1.0" encoding="UTF-8" standalone="no"?>
<!-- Created with Inkscape (http://www.inkscape.org/) -->

<svg
   width="2000"
   height="2000"
   viewBox="0 0 1999.9999 2000"
   version="1.1"
   id="svg1"
   inkscape:version="1.4.2 (f4327f4, 2025-05-13)"
   sodipodi:docname="roundel.svg"
   inkscape:export-filename="roundel.png"
   inkscape:export-xdpi="300"
   inkscape:export-ydpi="300"
   xmlns:inkscape="http://www.inkscape.org/namespaces/inkscape"
   xmlns:sodipodi="http://sodipodi.sourceforge.net/DTD/sodipodi-0.dtd"
   xmlns="http://www.w3.org/2000/svg"
   xmlns:svg="http://www.w3.org/2000/svg">
  <sodipodi:namedview
     id="namedview1"
     pagecolor="#bfbfbf"
     bordercolor="#000000"
     borderopacity="0.25"
     inkscape:showpageshadow="2"
     inkscape:pageopacity="0.0"
     inkscape:pagecheckerboard="false"
     inkscape:deskcolor="#d1d1d1"
     inkscape:document-units="px"
     inkscape:current-layer="svg1" />
  <defs
     id="defs1" />
  <g
     id="g7"
     inkscape:label="Roundel"
     style="stroke-width:40;stroke-dasharray:none"
     transform="translate(850.00017,200)">
    <path
       id="path5"
       style="display:inline;fill:#db0700;fill-opacity:1;fill-rule:nonzero;stroke:#ffffff;stroke-width:40;stroke-linecap:butt;stroke-linejoin:miter;stroke-miterlimit:50;stroke-dasharray:none;stroke-opacity:1;paint-order:markers stroke fill"
       inkscape:label="red"
       d="M 0,600 A 200,200 0 0 1 0,1000 200,200 0 0 1 0,600 M 0,1600 A 800,800 0 0 0 0,0 800,800 0 0 0 0,1600 m 0,0 H 1100 L 800,1000 H 0" />
    <path
       id="path4"
       style="display:inline;fill:#041e42;fill-opacity:1;fill-rule:nonzero;stroke:#ffffff;stroke-width:40;stroke-linecap:round;stroke-linejoin:miter;stroke-miterlimit:50;stroke-dasharray:none;stroke-opacity:1;paint-order:markers stroke fill"
       inkscape:label="blue"
       d="M 0,600 A 200,200 0 0 1 0,1000 200,200 0 0 1 0,600 M 0,400 a 400,400 0 0 0 0,800 400,400 0 0 0 0,-800 m 0,800 H 900 L 800,1000 H 0" />
    <path
       id="path2"
       style="display:inline;fill:#ffffff;fill-opacity:1;fill-rule:evenodd;stroke:#ffffff;stroke-width:20;stroke-linecap:round;stroke-linejoin:miter;stroke-miterlimit:50;stroke-dasharray:none;stroke-opacity:1;paint-order:markers stroke fill"
       inkscape:label="white"
       d="M 800,995 H 0 A 195,195 0 0 1 0,605 195,195 0 0 1 0,995" />
  </g>
</svg>
